<svg width="45px" height="45px" viewBox="0 0 65 36" class="text-succinct-pink" xmlns="http://www.w3.org/2000/svg"><path d="M30.8159 4.93047C30.4959 4.93047 30.2251 4.68274 30.2027 4.35847C30.1789 4.01974 30.4345 3.72508 30.7733 3.70124C32.7818 3.55969 34.8531 3.48747 36.9295 3.48747C37.2697 3.48747 37.5448 3.76263 37.5448 4.1028C37.5448 4.44297 37.2689 4.71813 36.9295 4.71813C34.882 4.71813 32.8395 4.78891 30.8599 4.92902C30.8448 4.93047 30.8303 4.93047 30.8159 4.93047Z" fill="black"></path><path d="M65 17.3788C65 15.4288 63.2573 13.6074 60.2348 12.0582V9.03428H60.2131C60.2261 8.92594 60.2348 8.81689 60.2348 8.70711C60.2348 3.89856 47.8176 0 32.5 0C17.1824 0 4.76522 3.89856 4.76522 8.70711C4.76522 8.81689 4.77389 8.92522 4.78689 9.03428H4.76522V12.2828C1.50655 13.7388 0 15.2779 0 17.3788C0 17.5074 0.010111 17.6345 0.0252777 17.7623H0V25.3175H0.00433336C0.189944 30.9024 14.6662 35.412 32.5 35.412C50.3338 35.412 64.8101 30.9024 64.9957 25.3175H65V17.7623H64.9747C64.9899 17.6352 65 17.5074 65 17.3788ZM7.99283 6.73039C9.21411 5.824 11.089 4.95878 13.4153 4.22861C18.4882 2.63611 25.2655 1.75933 32.5 1.75933C39.7345 1.75933 46.5126 2.63611 51.5847 4.22861C56.3456 5.72289 58.4762 7.55517 58.4762 8.70783C58.4762 8.72661 58.4747 8.76344 58.4668 8.82917C58.4047 9.35422 57.9157 9.99122 57.0881 10.6217C56.0452 11.4169 54.4772 12.1926 52.5576 12.8635L52.5352 12.8714C52.4109 12.9148 52.2853 12.9574 52.1582 13L52.1278 13.0101L52.1112 13.0159C51.9906 13.0556 51.8686 13.0953 51.7451 13.1351L51.7082 13.1473L51.6757 13.1574C51.5573 13.195 51.4381 13.2318 51.3182 13.2687L51.2749 13.2817L51.2287 13.2961C51.1124 13.3315 50.9939 13.3662 50.8755 13.4008L50.8322 13.4138L50.7708 13.4319C50.6559 13.4651 50.5404 13.4976 50.4241 13.5301L50.3772 13.5431L50.2999 13.5648C50.1865 13.5958 50.0724 13.6269 49.9568 13.6572L49.8196 13.6933C49.7074 13.7228 49.5937 13.7516 49.48 13.7804L49.4787 13.7807L49.4397 13.7908L49.3278 13.8183C49.2166 13.8464 49.1039 13.8739 48.9912 13.9006L48.9594 13.9086L48.8244 13.9411C48.7139 13.9671 48.6027 13.9931 48.4842 14.0205L48.3109 14.0602C48.2011 14.0848 48.0906 14.1093 47.9794 14.1339L47.788 14.1758C47.6782 14.1996 47.5684 14.2227 47.4572 14.2458L47.2543 14.2877C47.1452 14.3101 47.0362 14.3318 46.9264 14.3534C46.8549 14.3679 46.7827 14.3816 46.7104 14.3961C46.6021 14.417 46.4938 14.4379 46.3847 14.4582C46.3096 14.4719 46.2345 14.4863 46.1594 14.5001C46.0514 14.5202 45.9427 14.5396 45.834 14.5591L45.8329 14.5593C45.7549 14.573 45.6762 14.5867 45.5975 14.6004C45.4899 14.6192 45.3816 14.6373 45.2732 14.6561C45.1916 14.6698 45.1093 14.6835 45.0269 14.6965C44.9193 14.7138 44.811 14.7319 44.7027 14.7492C44.6182 14.7622 44.5337 14.7759 44.4492 14.7889C44.4377 14.7907 44.4263 14.7925 44.4149 14.7942C44.3181 14.8091 44.2217 14.8238 44.1242 14.8381C44.0375 14.8511 43.9501 14.8633 43.8634 14.8763C43.7551 14.8922 43.6468 14.9074 43.5377 14.9226C43.4474 14.9348 43.3564 14.9478 43.2662 14.9601C43.1586 14.9746 43.0509 14.989 42.9426 15.0034C42.8552 15.015 42.7671 15.0258 42.679 15.0374L42.6638 15.0396C42.5558 15.0532 42.4469 15.067 42.3388 15.08C42.2442 15.0916 42.1496 15.1024 42.0521 15.1139C41.9452 15.1262 41.8383 15.1392 41.7307 15.1515C41.6325 15.1623 41.5343 15.1732 41.4317 15.1847L41.4223 15.1854C41.3191 15.197 41.2158 15.2078 41.1118 15.2187C41.0208 15.2281 40.9298 15.2374 40.8381 15.2468L40.8063 15.2497L40.7759 15.2526C40.6792 15.262 40.5824 15.2721 40.4856 15.2815C40.4004 15.2894 40.3152 15.2974 40.2292 15.3053L40.1714 15.3104L40.118 15.3154C40.0299 15.3234 39.9418 15.3321 39.8529 15.3393C39.7656 15.3472 39.6782 15.3544 39.5908 15.3617L39.5337 15.3667L39.4731 15.3718C39.3864 15.379 39.299 15.3862 39.2123 15.3934C39.1322 15.4002 39.0514 15.4063 38.9711 15.4124C38.9653 15.4128 38.9595 15.4132 38.9538 15.4137L38.8859 15.4187L38.8137 15.4245C38.7321 15.431 38.6512 15.4368 38.5688 15.4426C38.4786 15.4491 38.3876 15.4548 38.2966 15.4613L38.2316 15.4657L38.1514 15.4714C38.0727 15.4765 37.9939 15.4823 37.9152 15.4873C37.8278 15.4931 37.7397 15.4982 37.6516 15.5032L37.5743 15.5076L37.4906 15.5126C37.4126 15.5169 37.3346 15.522 37.2558 15.5263C37.1684 15.5314 37.0811 15.5357 36.9929 15.5401L36.9063 15.5444L36.8138 15.5494C36.7402 15.5531 36.6665 15.5574 36.5921 15.5603C36.5033 15.5646 36.4144 15.5682 36.3256 15.5718L36.2332 15.5754L36.1321 15.5798C36.062 15.5827 35.9912 15.5863 35.9204 15.5884C35.8294 15.5921 35.7384 15.5949 35.6467 15.5986L35.5528 15.6022L35.4488 15.6058C35.3809 15.6079 35.3138 15.6108 35.2459 15.613C35.1491 15.6159 35.0523 15.6188 34.9548 15.6209L34.8624 15.6238L34.5692 15.6318C34.4579 15.6347 34.346 15.6361 34.2341 15.6383L34.1496 15.6397L34.0441 15.6419L33.8852 15.6448C33.7446 15.6469 33.6026 15.6484 33.4612 15.6498C33.4595 15.6498 33.4579 15.6498 33.4562 15.6498L33.4143 15.6506L33.3176 15.652L33.1948 15.6534C32.9644 15.6556 32.7326 15.6563 32.5007 15.6563C32.2689 15.6563 32.0371 15.6556 31.8067 15.6534L31.6832 15.652L31.5857 15.6506L31.5445 15.6498C31.4018 15.6484 31.2582 15.6469 31.1155 15.6448L30.9559 15.6419L30.8504 15.6397L30.7659 15.6383C30.654 15.6361 30.5428 15.6339 30.4316 15.6318L30.1376 15.6238L30.0423 15.6209C29.9455 15.6181 29.848 15.6159 29.7512 15.613C29.6833 15.6108 29.6154 15.6087 29.5483 15.6058L29.4443 15.6022L29.3504 15.5986C29.2594 15.5957 29.1677 15.5921 29.0767 15.5884C29.0059 15.5856 28.9358 15.5827 28.8651 15.5798L28.7647 15.5754L28.6722 15.5718C28.5834 15.5682 28.4946 15.5639 28.4057 15.5603C28.3313 15.5567 28.2577 15.5531 28.184 15.5494L28.0916 15.5444L28.0049 15.5401C28.0009 15.5399 27.997 15.5397 27.993 15.5395C27.9095 15.5353 27.8254 15.5312 27.742 15.5263C27.6633 15.522 27.5853 15.5177 27.5073 15.5126L27.4235 15.5076L27.3462 15.5032C27.2581 15.4982 27.17 15.4931 27.0826 15.4873C27.0039 15.4823 26.9252 15.4772 26.8464 15.4714L26.7663 15.4657L26.7013 15.4613C26.6103 15.4556 26.5193 15.4491 26.429 15.4426C26.3474 15.4368 26.2658 15.4303 26.1842 15.4245L26.1119 15.4187L26.0441 15.4137C25.9574 15.4072 25.8707 15.4007 25.7848 15.3934C25.6974 15.3862 25.6107 15.379 25.5241 15.3718L25.4634 15.3667L25.4063 15.3617C25.4004 15.3612 25.3945 15.3607 25.3885 15.3602C25.307 15.3535 25.2249 15.3467 25.1442 15.3393C25.0553 15.3313 24.9672 15.3234 24.8791 15.3154L24.8257 15.3104L24.7679 15.3053C24.6827 15.2974 24.5967 15.2894 24.5115 15.2815C24.414 15.2721 24.3179 15.2627 24.2212 15.2526L24.1908 15.2497L24.1591 15.2468C24.0681 15.2374 23.9763 15.2288 23.8861 15.2187C23.7821 15.2078 23.6788 15.1963 23.5755 15.1854L23.5618 15.184C23.4636 15.1732 23.3646 15.1623 23.2671 15.1515C23.1595 15.1392 23.0526 15.1269 22.9457 15.1139L22.9233 15.1111C22.8352 15.1009 22.7471 15.0901 22.6597 15.0793C22.5507 15.0663 22.4423 15.0526 22.3268 15.0374C22.2358 15.0258 22.1455 15.0143 22.0552 15.0027C21.9469 14.9883 21.8393 14.9738 21.7324 14.9594C21.6414 14.9471 21.5511 14.9348 21.4608 14.9218C21.3518 14.9067 21.2434 14.8908 21.1351 14.8756C21.0477 14.8626 20.9603 14.8503 20.8737 14.8373C20.7653 14.8214 20.657 14.8048 20.5494 14.7882C20.5396 14.7867 20.5298 14.7852 20.5199 14.7837C20.4451 14.7722 20.3699 14.7606 20.2952 14.7485C20.1868 14.7312 20.0785 14.7138 19.9709 14.6958C19.8886 14.6821 19.8062 14.6691 19.7253 14.6553C19.617 14.6373 19.5087 14.6185 19.4011 14.5997C19.3223 14.586 19.2436 14.5723 19.1656 14.5586C19.0566 14.5391 18.9475 14.5196 18.8399 14.4993C18.7641 14.4856 18.6889 14.4712 18.6138 14.4574C18.5048 14.4372 18.3964 14.4163 18.2881 14.3953C18.2159 14.3816 18.1444 14.3672 18.0729 14.3534C17.9631 14.3318 17.8533 14.3101 17.745 14.2877L17.5421 14.2458C17.4316 14.2227 17.3211 14.1996 17.2113 14.1758L17.0206 14.1346C16.9094 14.1101 16.7989 14.0855 16.6891 14.0609L16.5237 14.0234L16.5086 14.0198C16.3973 13.9938 16.2861 13.9685 16.1763 13.9418L16.0413 13.9093L16.0088 13.9013L16.0075 13.901C15.8952 13.8737 15.783 13.8463 15.6722 13.819L15.5559 13.7894L15.5213 13.7807C15.4072 13.7518 15.2931 13.7222 15.1797 13.6926L15.0872 13.6681L15.0432 13.6565C14.9276 13.6262 14.8135 13.5951 14.6994 13.5641L14.5759 13.5294C14.4596 13.4969 14.3433 13.4644 14.2292 13.4312L14.1686 13.4131L14.1231 13.4001C14.0046 13.3654 13.8862 13.3308 13.7692 13.2954L13.7229 13.2809L13.6811 13.2679C13.5604 13.2311 13.4406 13.1943 13.3228 13.1567L13.2903 13.1466L13.2528 13.1343C13.13 13.0953 13.0079 13.0556 12.8873 13.0159L12.87 13.0094L12.8397 12.9993C12.7133 12.9567 12.5876 12.9148 12.4641 12.8714L12.4439 12.8642C8.25933 11.4017 6.64444 9.77672 6.53322 8.82917C6.52528 8.76344 6.52383 8.72661 6.52383 8.70783C6.52311 8.13583 7.04528 7.43311 7.99283 6.73039ZM63.1923 17.7623C63.0312 18.4094 62.4917 19.0241 61.9197 19.5209C61.7457 19.6719 61.5687 19.812 61.3983 19.9391C59.9401 21.021 57.7121 22.0509 54.9546 22.9168C48.9818 24.7917 41.0078 25.8245 32.5 25.8245C23.9922 25.8245 16.0182 24.7917 10.0454 22.9168C7.28794 22.0509 5.05989 21.0217 3.60172 19.9391C3.43128 19.8127 3.25433 19.6719 3.08028 19.5209C2.50756 19.0248 1.96878 18.4094 1.80772 17.7623C1.77594 17.6352 1.75789 17.5074 1.75789 17.3788C1.75789 16.3944 2.76033 15.4433 3.60172 14.8193C3.94694 14.5629 4.33622 14.3101 4.7645 14.0617V15.4823H4.76811C4.927 20.2482 17.2806 24.0962 32.5 24.0962C47.7194 24.0962 60.073 20.2475 60.2312 15.4816H60.2348V14.0617C60.6631 14.3101 61.0531 14.5629 61.3976 14.8193C62.2389 15.4433 63.2414 16.3944 63.2414 17.3788C63.2414 17.5074 63.2241 17.6352 63.1923 17.7623Z" fill="black"></path><path d="M7.99283 6.73039C9.21411 5.824 11.089 4.95878 13.4153 4.22861C18.4882 2.63611 25.2655 1.75933 32.5 1.75933C39.7345 1.75933 46.5126 2.63611 51.5847 4.22861C56.3456 5.72289 58.4762 7.55517 58.4762 8.70783C58.4762 8.72661 58.4747 8.76344 58.4668 8.82917C58.4047 9.35422 57.9157 9.99122 57.0881 10.6217C56.0452 11.4169 54.4772 12.1926 52.5576 12.8635L52.5352 12.8714C52.4109 12.9148 52.2853 12.9574 52.1582 13L52.1278 13.0101L52.1112 13.0159C51.9906 13.0556 51.8686 13.0953 51.7451 13.1351L51.7082 13.1473L51.6757 13.1574C51.5573 13.195 51.4381 13.2318 51.3182 13.2687L51.2749 13.2817L51.2287 13.2961C51.1124 13.3315 50.9939 13.3662 50.8755 13.4008L50.8322 13.4138L50.7708 13.4319C50.6559 13.4651 50.5404 13.4976 50.4241 13.5301L50.3772 13.5431L50.2999 13.5648C50.1865 13.5958 50.0724 13.6269 49.9568 13.6572L49.8196 13.6933C49.7074 13.7228 49.5937 13.7516 49.48 13.7804L49.4787 13.7807L49.4397 13.7908L49.3278 13.8183C49.2166 13.8464 49.1039 13.8739 48.9912 13.9006L48.9594 13.9086L48.8244 13.9411C48.7139 13.9671 48.6027 13.9931 48.4842 14.0205L48.3109 14.0602C48.2011 14.0848 48.0906 14.1093 47.9794 14.1339L47.788 14.1758C47.6782 14.1996 47.5684 14.2227 47.4572 14.2458L47.2543 14.2877C47.1452 14.3101 47.0362 14.3318 46.9264 14.3534C46.8549 14.3679 46.7827 14.3816 46.7104 14.3961C46.6021 14.417 46.4938 14.4379 46.3847 14.4582C46.3096 14.4719 46.2345 14.4863 46.1594 14.5001C46.0514 14.5202 45.9427 14.5396 45.834 14.5591L45.8329 14.5593C45.7549 14.573 45.6762 14.5867 45.5975 14.6004C45.4899 14.6192 45.3816 14.6373 45.2732 14.6561C45.1916 14.6698 45.1093 14.6835 45.0269 14.6965C44.9193 14.7138 44.811 14.7319 44.7027 14.7492C44.6182 14.7622 44.5337 14.7759 44.4492 14.7889L44.4149 14.7942C44.3181 14.8091 44.2217 14.8238 44.1242 14.8381C44.0375 14.8511 43.9501 14.8633 43.8634 14.8763C43.7551 14.8922 43.6468 14.9074 43.5377 14.9226C43.4474 14.9348 43.3564 14.9478 43.2662 14.9601L42.9426 15.0034C42.8552 15.015 42.7671 15.0258 42.679 15.0374L42.6638 15.0396C42.5558 15.0532 42.4469 15.067 42.3388 15.08C42.2442 15.0916 42.1496 15.1024 42.0521 15.1139C41.9452 15.1262 41.8383 15.1392 41.7307 15.1515C41.6325 15.1623 41.5343 15.1732 41.4317 15.1847L41.4223 15.1854C41.3191 15.197 41.2158 15.2078 41.1118 15.2187L40.8381 15.2468L40.8063 15.2497L40.7759 15.2526C40.6792 15.262 40.5824 15.2721 40.4856 15.2815L40.2292 15.3053L40.1714 15.3104L40.118 15.3154C40.0299 15.3234 39.9418 15.3321 39.8529 15.3393C39.7656 15.3472 39.6782 15.3544 39.5908 15.3617L39.5337 15.3667L39.4731 15.3718L39.2123 15.3934C39.1322 15.4002 39.0514 15.4063 38.9711 15.4124L38.9538 15.4137L38.8859 15.4187L38.8137 15.4245C38.7321 15.431 38.6512 15.4368 38.5688 15.4426C38.4786 15.4491 38.3876 15.4548 38.2966 15.4613L38.2316 15.4657L38.1514 15.4714C38.0727 15.4765 37.9939 15.4823 37.9152 15.4873C37.8278 15.4931 37.7397 15.4982 37.6516 15.5032L37.5743 15.5076L37.4906 15.5126C37.4126 15.5169 37.3346 15.522 37.2558 15.5263C37.1684 15.5314 37.0811 15.5357 36.9929 15.5401L36.9063 15.5444L36.8138 15.5494C36.7402 15.5531 36.6665 15.5574 36.5921 15.5603C36.5033 15.5646 36.4144 15.5682 36.3256 15.5718L36.2332 15.5754L36.1321 15.5798C36.062 15.5827 35.9912 15.5863 35.9204 15.5884C35.8294 15.5921 35.7384 15.5949 35.6467 15.5986L35.5528 15.6022L35.4488 15.6058C35.3809 15.6079 35.3138 15.6108 35.2459 15.613C35.1491 15.6159 35.0523 15.6188 34.9548 15.6209L34.8624 15.6238L34.5692 15.6318C34.4579 15.6347 34.346 15.6361 34.2341 15.6383L34.1496 15.6397L34.0441 15.6419L33.8852 15.6448C33.7446 15.6469 33.6026 15.6484 33.4612 15.6498L33.4562 15.6498L33.4143 15.6506L33.3176 15.652L33.1948 15.6534C32.9644 15.6556 32.7326 15.6563 32.5007 15.6563C32.2689 15.6563 32.0371 15.6556 31.8067 15.6534L31.6832 15.652L31.5857 15.6506L31.5445 15.6498C31.4018 15.6484 31.2582 15.6469 31.1155 15.6448L30.9559 15.6419L30.8504 15.6397L30.7659 15.6383L30.4316 15.6318L30.1376 15.6238L30.0423 15.6209C29.9455 15.6181 29.848 15.6159 29.7512 15.613C29.6833 15.6108 29.6154 15.6087 29.5483 15.6058L29.4443 15.6022L29.3504 15.5986C29.2594 15.5957 29.1677 15.5921 29.0767 15.5884L28.8651 15.5798L28.7647 15.5754L28.6722 15.5718C28.5834 15.5682 28.4946 15.5639 28.4057 15.5603L28.184 15.5494L28.0916 15.5444L28.0049 15.5401L27.993 15.5395C27.9095 15.5353 27.8254 15.5312 27.742 15.5263C27.6633 15.522 27.5853 15.5177 27.5073 15.5126L27.4235 15.5076L27.3462 15.5032C27.2581 15.4982 27.17 15.4931 27.0826 15.4873C27.0039 15.4823 26.9252 15.4772 26.8464 15.4714L26.7663 15.4657L26.7013 15.4613C26.6103 15.4556 26.5193 15.4491 26.429 15.4426C26.3474 15.4368 26.2658 15.4303 26.1842 15.4245L26.1119 15.4187L26.0441 15.4137C25.9574 15.4072 25.8707 15.4007 25.7848 15.3934L25.5241 15.3718L25.4634 15.3667L25.4063 15.3617L25.3885 15.3602C25.307 15.3535 25.2249 15.3467 25.1442 15.3393L24.8791 15.3154L24.8257 15.3104L24.7679 15.3053L24.5115 15.2815C24.414 15.2721 24.3179 15.2627 24.2212 15.2526L24.1908 15.2497L24.1591 15.2468C24.0681 15.2374 23.9763 15.2288 23.8861 15.2187C23.7821 15.2078 23.6788 15.1963 23.5755 15.1854L23.5618 15.184C23.4636 15.1732 23.3646 15.1623 23.2671 15.1515C23.1595 15.1392 23.0526 15.1269 22.9457 15.1139L22.9233 15.1111C22.8352 15.1009 22.7471 15.0901 22.6597 15.0793C22.5507 15.0663 22.4423 15.0526 22.3268 15.0374L22.0552 15.0027C21.9469 14.9883 21.8393 14.9738 21.7324 14.9594C21.6414 14.9471 21.5511 14.9348 21.4608 14.9218C21.3518 14.9067 21.2434 14.8908 21.1351 14.8756C21.0477 14.8626 20.9603 14.8503 20.8737 14.8373C20.7653 14.8214 20.657 14.8048 20.5494 14.7882L20.5199 14.7837C20.4451 14.7722 20.3699 14.7606 20.2952 14.7485C20.1868 14.7312 20.0785 14.7138 19.9709 14.6958C19.8886 14.6821 19.8062 14.6691 19.7253 14.6553C19.617 14.6373 19.5087 14.6185 19.4011 14.5997C19.3223 14.586 19.2436 14.5723 19.1656 14.5586C19.0566 14.5391 18.9475 14.5196 18.8399 14.4993C18.7641 14.4856 18.6889 14.4712 18.6138 14.4574C18.5048 14.4372 18.3964 14.4163 18.2881 14.3953C18.2159 14.3816 18.1444 14.3672 18.0729 14.3534C17.9631 14.3318 17.8533 14.3101 17.745 14.2877L17.5421 14.2458C17.4316 14.2227 17.3211 14.1996 17.2113 14.1758L17.0206 14.1346C16.9094 14.1101 16.7989 14.0855 16.6891 14.0609L16.5237 14.0234L16.5086 14.0198C16.3973 13.9938 16.2861 13.9685 16.1763 13.9418L16.0413 13.9093L16.0088 13.9013L16.0075 13.901C15.8952 13.8737 15.783 13.8463 15.6722 13.819L15.5559 13.7894L15.5213 13.7807C15.4072 13.7518 15.2931 13.7222 15.1797 13.6926L15.0872 13.6681L15.0432 13.6565C14.9276 13.6262 14.8135 13.5951 14.6994 13.5641L14.5759 13.5294C14.4596 13.4969 14.3433 13.4644 14.2292 13.4312L14.1686 13.4131L14.1231 13.4001C14.0046 13.3654 13.8862 13.3308 13.7692 13.2954L13.7229 13.2809L13.6811 13.2679C13.5604 13.2311 13.4406 13.1943 13.3228 13.1567L13.2903 13.1466L13.2528 13.1343C13.13 13.0953 13.0079 13.0556 12.8873 13.0159L12.87 13.0094L12.8397 12.9993C12.7133 12.9567 12.5876 12.9148 12.4641 12.8714L12.4439 12.8642C8.25933 11.4017 6.64444 9.77672 6.53322 8.82917C6.52528 8.76344 6.52383 8.72661 6.52383 8.70783C6.52311 8.13583 7.04528 7.43311 7.99283 6.73039Z" fill="currentColor"></path><path d="M63.1923 17.7623C63.0312 18.4094 62.4917 19.0241 61.9197 19.5209C61.7457 19.6719 61.5687 19.812 61.3983 19.9391C59.9401 21.021 57.7121 22.0509 54.9546 22.9168C48.9818 24.7917 41.0078 25.8245 32.5 25.8245C23.9922 25.8245 16.0182 24.7917 10.0454 22.9168C7.28794 22.0509 5.05989 21.0217 3.60172 19.9391C3.43128 19.8127 3.25433 19.6719 3.08028 19.5209C2.50756 19.0248 1.96878 18.4094 1.80772 17.7623C1.77594 17.6352 1.75789 17.5074 1.75789 17.3788C1.75789 16.3944 2.76033 15.4433 3.60172 14.8193C3.94694 14.5629 4.33622 14.3101 4.7645 14.0617V15.4823H4.76811C4.927 20.2482 17.2806 24.0962 32.5 24.0962C47.7194 24.0962 60.073 20.2475 60.2312 15.4816H60.2348V14.0617C60.6631 14.3101 61.0531 14.5629 61.3976 14.8193C62.2389 15.4433 63.2414 16.3944 63.2414 17.3788C63.2414 17.5074 63.2241 17.6352 63.1923 17.7623Z" fill="currentColor"></path><path d="M11.9313 9.6497C11.7298 9.6497 11.5326 9.55148 11.4149 9.3702C11.2293 9.08565 11.3102 8.70431 11.5947 8.5187C14.8657 6.38887 20.7713 4.72992 27.7971 3.96726C28.1343 3.92898 28.4384 4.17453 28.4752 4.51253C28.5121 4.85053 28.2679 5.15387 27.9299 5.1907C21.0898 5.93314 15.3806 7.52204 12.2664 9.55004C12.1631 9.6172 12.0461 9.6497 11.9313 9.6497Z" fill="black"></path></svg>